<?xml version="1.0" encoding="UTF-8" standalone="no"?>
<svg
   xmlns:dc="http://purl.org/dc/elements/1.1/"
   xmlns:cc="http://creativecommons.org/ns#"
   xmlns:rdf="http://www.w3.org/1999/02/22-rdf-syntax-ns#"
   xmlns:svg="http://www.w3.org/2000/svg"
   xmlns="http://www.w3.org/2000/svg"
   xmlns:sodipodi="http://sodipodi.sourceforge.net/DTD/sodipodi-0.dtd"
   xmlns:inkscape="http://www.inkscape.org/namespaces/inkscape"
   version="1.1"
   id="svg2"
   width="150"
   height="147"
   viewBox="0 0 150 147"
   sodipodi:docname="mini.svg"
   inkscape:version="1.0.1 (3bc2e813f5, 2020-09-07)">
  <metadata
     id="metadata8">
    <rdf:RDF>
      <cc:Work
         rdf:about="">
        <dc:format>image/svg+xml</dc:format>
        <dc:type
           rdf:resource="http://purl.org/dc/dcmitype/StillImage" />
        <dc:title />
      </cc:Work>
    </rdf:RDF>
  </metadata>
  <defs
     id="defs6" />
  <sodipodi:namedview
     pagecolor="#ffffff"
     bordercolor="#666666"
     borderopacity="1"
     objecttolerance="10"
     gridtolerance="10"
     guidetolerance="10"
     inkscape:pageopacity="0"
     inkscape:pageshadow="2"
     inkscape:window-width="1366"
     inkscape:window-height="705"
     id="namedview4"
     showgrid="false"
     inkscape:zoom="1.8512268"
     inkscape:cx="120.76864"
     inkscape:cy="81.093517"
     inkscape:window-x="-8"
     inkscape:window-y="-8"
     inkscape:window-maximized="1"
     inkscape:current-layer="g10"
     inkscape:document-rotation="0" />
  <g
     inkscape:groupmode="layer"
     inkscape:label="Image"
     id="g10">
    <path
       style="fill:#ff0000;stroke-width:0.32;fill-opacity:1"
       d="m 74.132487,145.84765 c -0.06496,-0.22 -1.514758,-8.248 -3.221766,-17.84 C 61.696372,76.230538 53.812433,33.52273 53.390788,33.101089 c -0.773289,-0.77329 -5.681123,-0.977687 -10.73271,-0.446983 -8.837751,0.928467 -12.682682,2.814103 -15.857235,7.77673 -0.801751,1.253341 -1.368436,1.816819 -1.827152,1.816819 -1.118032,0 -5.232311,-2.074275 -8.355303,-4.212454 -3.281305,-2.24657 -8.3631777,-6.905152 -9.1118117,-8.352852 -0.441121,-0.853033 -0.432488,-0.989414 0.100849,-1.593241 0.803332,-0.909511 5.6319417,-3.138544 9.8616347,-4.552429 8.567997,-2.864083 18.15521,-5.201222 28.273837,-6.892509 10.002787,-1.671926 12.021837,-1.628886 14.703098,0.313408 0.722668,0.523498 3.386531,3.439923 5.919696,6.480944 4.782256,5.741018 8.1591,9.209133 8.966774,9.209133 0.596147,0 2.906124,-2.498208 8.741304,-9.453587 4.72616,-5.633443 6.08895,-6.859965 8.30615,-7.475568 1.76734,-0.490701 3.19206,-0.437837 8.290771,0.307632 16.74123,2.447689 37.19917,8.219593 41.72576,11.772301 1.15793,0.908803 0.68042,2.03688 -1.98601,4.691814 -4.93718,4.915907 -13.0663,9.982592 -15.55259,9.693565 -0.59841,-0.06956 -1.09265,-0.531277 -1.78716,-1.66953 -1.65812,-2.717549 -4.25044,-5.133491 -6.33428,-5.903315 -3.82209,-1.411974 -13.90978,-2.532723 -17.779533,-1.975318 -1.11859,0.161123 -2.106508,0.36566 -2.195378,0.454524 -0.47676,0.476762 -4.65768,22.977293 -14.664,78.917477 -4.36865,24.42285 -5.694816,31.21373 -6.514775,33.36 -0.344275,0.90116 -1.23848,1.19712 -1.450237,0.48 z M 3.3419513,22.685898 C 2.5765073,22.29898 0.73613729,18.578916 0.45592629,16.85218 0.28296229,15.786327 0.34265429,15.705021 1.9933323,14.758116 5.4245913,12.789784 21.319172,7.9825104 32.670689,5.479831 38.761348,4.137018 47.271876,2.7972 56.190689,1.777063 76.584055,-0.55553701 99.614477,1.110271 122.43069,6.568251 c 9.90659,2.3698054 22.30871,6.293007 25.6,8.09813 1.52195,0.834717 1.59885,0.940724 1.57655,2.173015 -0.0324,1.789283 -1.78656,5.458966 -2.83861,5.93831 -1.1631,0.529946 -2.72394,0.123331 -13.84886,-3.607776 C 111.3863,11.947978 104.16458,10.900339 75.870689,10.893947 46.795579,10.887347 39.098436,11.975959 17.224324,19.188103 6.1259363,22.84737 4.4812153,23.261773 3.3419513,22.685898 Z"
       id="path839" />
  </g>
</svg>
